<svg width="80" height="80" viewBox="0 0 80 80" fill="none" xmlns="http://www.w3.org/2000/svg">
<path d="M63.3332 43.3333C62.4491 43.3333 61.6013 43.6845 60.9761 44.3096C60.351 44.9347 59.9998 45.7826 59.9998 46.6666V47.9666L55.0665 43.0333C53.3246 41.3051 50.9703 40.3354 48.5165 40.3354C46.0628 40.3354 43.7084 41.3051 41.9665 43.0333L39.6332 45.3666L31.3665 37.0666C29.5926 35.4003 27.2503 34.4727 24.8165 34.4727C22.3827 34.4727 20.0404 35.4003 18.2665 37.0666L13.3332 42.0333V23.3333C13.3332 22.4492 13.6844 21.6014 14.3095 20.9763C14.9346 20.3512 15.7824 20 16.6665 20H29.9998C30.8839 20 31.7317 19.6488 32.3569 19.0237C32.982 18.3985 33.3332 17.5507 33.3332 16.6666C33.3332 15.7826 32.982 14.9347 32.3569 14.3096C31.7317 13.6845 30.8839 13.3333 29.9998 13.3333H16.6665C14.0143 13.3333 11.4708 14.3869 9.59544 16.2622C7.72007 18.1376 6.6665 20.6811 6.6665 23.3333V63.3333C6.6665 65.9855 7.72007 68.529 9.59544 70.4044C11.4708 72.2797 14.0143 73.3333 16.6665 73.3333H56.6665C59.3187 73.3333 61.8622 72.2797 63.7376 70.4044C65.6129 68.529 66.6665 65.9855 66.6665 63.3333V46.6666C66.6665 45.7826 66.3153 44.9347 65.6902 44.3096C65.0651 43.6845 64.2172 43.3333 63.3332 43.3333ZM16.6665 66.6666C15.7824 66.6666 14.9346 66.3154 14.3095 65.6903C13.6844 65.0652 13.3332 64.2174 13.3332 63.3333V51.4333L22.9998 41.8C23.4895 41.3333 24.1401 41.073 24.8165 41.073C25.493 41.073 26.1435 41.3333 26.6332 41.8L37.1998 52.3666L51.4998 66.6666H16.6665ZM59.9998 63.3333C59.9784 63.9788 59.77 64.6041 59.3998 65.1333L44.3665 50L46.6998 47.7C46.9388 47.4561 47.2241 47.2623 47.5389 47.13C47.8537 46.9977 48.1917 46.9296 48.5332 46.9296C48.8746 46.9296 49.2127 46.9977 49.5275 47.13C49.8423 47.2623 50.1275 47.4561 50.3665 47.7L59.9998 57.4V63.3333ZM72.3665 34.3L66.6665 28.5666C68.0795 26.268 68.8166 23.6179 68.7934 20.9198C68.7702 18.2217 67.9877 15.5847 66.5355 13.3107C65.0833 11.0366 63.02 9.21753 60.5819 8.06163C58.1439 6.90572 55.4296 6.45975 52.7499 6.77478C50.0701 7.08981 47.5333 8.1531 45.4298 9.84291C43.3263 11.5327 41.7411 13.7807 40.8559 16.3296C39.9706 18.8784 39.821 21.625 40.4242 24.2549C41.0274 26.8848 42.359 29.2917 44.2665 31.2C46.9149 33.8649 50.5095 35.3747 54.2665 35.4C56.9535 35.4334 59.5967 34.7178 61.8998 33.3333L67.6332 39.1C67.9431 39.4124 68.3117 39.6604 68.7179 39.8296C69.1241 39.9988 69.5598 40.086 69.9998 40.086C70.4399 40.086 70.8756 39.9988 71.2818 39.8296C71.688 39.6604 72.0566 39.4124 72.3665 39.1C72.6891 38.789 72.9457 38.4162 73.121 38.0039C73.2962 37.5915 73.3866 37.148 73.3866 36.7C73.3866 36.2519 73.2962 35.8084 73.121 35.3961C72.9457 34.9837 72.6891 34.6109 72.3665 34.3ZM59.9998 26.6666C58.9204 27.7533 57.5425 28.495 56.041 28.7976C54.5395 29.1002 52.9819 28.95 51.5658 28.3662C50.1497 27.7824 48.9389 26.7913 48.0869 25.5184C47.2348 24.2455 46.78 22.7483 46.78 21.2166C46.78 19.6849 47.2348 18.1877 48.0869 16.9149C48.9389 15.642 50.1497 14.6508 51.5658 14.067C52.9819 13.4832 54.5395 13.3331 56.041 13.6357C57.5425 13.9383 58.9204 14.6799 59.9998 15.7666C61.439 17.2154 62.2466 19.1746 62.2466 21.2166C62.2466 23.2587 61.439 25.2179 59.9998 26.6666Z" fill="white"/>
</svg>
