<svg width="13" height="16" viewBox="0 0 13 16" fill="none" xmlns="http://www.w3.org/2000/svg">
<path d="M11.6261 0.617139C11.8373 0.828255 11.8373 1.17054 11.6261 1.38166L11.2294 1.77842C13.6001 4.53985 13.4775 8.70451 10.8616 11.3204C9.62692 12.5551 8.04719 13.2343 6.43284 13.3581V14.46H7.69423C7.99279 14.46 8.23483 14.702 8.23483 15.0006C8.23483 15.2992 7.99279 15.5412 7.69423 15.5412H4.09025C3.79168 15.5412 3.54965 15.2992 3.54965 15.0006C3.54965 14.702 3.79168 14.46 4.09025 14.46H5.35164V13.3581C3.90553 13.2472 2.48715 12.6905 1.31962 11.6882L0.922858 12.0849C0.711741 12.2961 0.369454 12.2961 0.158337 12.0849C-0.0527791 11.8738 -0.0527791 11.5315 0.158337 11.3204L0.668018 10.8107C1.02512 10.4536 1.58004 10.4719 1.9277 10.7834C3.05356 11.7924 4.47171 12.2971 5.89004 12.2976L5.89224 12.2976L5.89457 12.2976C7.41566 12.297 8.93659 11.7164 10.0971 10.5559C12.3409 8.31213 12.4167 4.72098 10.3246 2.3865C10.0131 2.03884 9.99483 1.48393 10.3519 1.12682L10.8616 0.617139C11.0727 0.406022 11.415 0.406022 11.6261 0.617139Z" fill="#AAAAAA"/>
<path fill-rule="evenodd" clip-rule="evenodd" d="M1.02686 6.35104C1.02686 3.66397 3.20517 1.48566 5.89224 1.48566C8.57931 1.48566 10.7576 3.66397 10.7576 6.35104C10.7576 9.03811 8.57931 11.2164 5.89224 11.2164C3.20517 11.2164 1.02686 9.03811 1.02686 6.35104ZM5.89224 2.56686C3.80229 2.56686 2.10806 4.26109 2.10806 6.35104C2.10806 6.59239 2.13065 6.82845 2.17384 7.05725C2.47031 6.73394 2.89621 6.53124 3.36945 6.53124C4.26514 6.53124 4.99124 7.25734 4.99124 8.15303C4.99124 8.81786 4.59121 9.38925 4.01872 9.63964C4.5711 9.95501 5.21063 10.1352 5.89224 10.1352C7.72549 10.1352 9.25426 8.83162 9.60215 7.10082C9.12024 7.84262 8.28433 8.33323 7.33383 8.33323C5.84101 8.33323 4.63085 7.12306 4.63085 5.63024C4.63085 4.13743 5.84101 2.92726 7.33383 2.92726C7.39616 2.92726 7.458 2.92937 7.51928 2.93352C7.0264 2.69845 6.47469 2.56686 5.89224 2.56686ZM5.71204 5.63024C5.71204 4.73455 6.43814 4.00845 7.33383 4.00845C8.22952 4.00845 8.95562 4.73455 8.95562 5.63024C8.95562 6.52594 8.22952 7.25204 7.33383 7.25204C6.43814 7.25204 5.71204 6.52594 5.71204 5.63024ZM3.36945 7.61243C3.07089 7.61243 2.82885 7.85447 2.82885 8.15303C2.82885 8.4516 3.07089 8.69363 3.36945 8.69363C3.66802 8.69363 3.91005 8.4516 3.91005 8.15303C3.91005 7.85447 3.66802 7.61243 3.36945 7.61243Z" fill="#AAAAAA"/>
</svg>
