<svg width="30" height="30" viewBox="0 0 30 30" fill="none" xmlns="http://www.w3.org/2000/svg">
<path fill-rule="evenodd" clip-rule="evenodd" d="M21.5 6.40948L23.4575 7.96823C23.6465 8.14614 23.7531 8.39464 23.7517 8.65424C23.7503 8.91383 23.641 9.16115 23.45 9.33698L21.9625 11.117L16.9012 17.1532C16.8127 17.2546 16.6947 17.3259 16.5637 17.357L13.9388 17.952C13.5944 17.9692 13.2945 17.7189 13.25 17.377V14.6795C13.2589 14.5494 13.3113 14.4262 13.3987 14.3295L18.3662 8.71323L20.0712 6.67698C20.4086 6.23483 21.0256 6.11931 21.5 6.40948Z" stroke="#222222" stroke-width="1.5" stroke-linecap="round" stroke-linejoin="round"/>
<path d="M14.4163 9.33575C14.8305 9.33575 15.1663 8.99997 15.1663 8.58575C15.1663 8.17154 14.8305 7.83575 14.4163 7.83575V9.33575ZM10.9163 8.58575L10.9163 7.83575L10.9145 7.83576L10.9163 8.58575ZM6.25001 13.2733L7.00001 13.2733L7.00001 13.2716L6.25001 13.2733ZM6.25001 20.3045L7.00001 20.3061V20.3045H6.25001ZM10.9163 24.992L10.9145 25.742H10.9163V24.992ZM17.9163 24.992L17.9163 25.742L17.9181 25.742L17.9163 24.992ZM22.5825 20.3045L21.8325 20.3045L21.8325 20.3061L22.5825 20.3045ZM23.3325 15.617C23.3325 15.2028 22.9967 14.867 22.5825 14.867C22.1683 14.867 21.8325 15.2028 21.8325 15.617H23.3325ZM19.0595 8.42707C18.9015 8.0442 18.4629 7.86195 18.0801 8.02C17.6972 8.17806 17.515 8.61657 17.673 8.99944L19.0595 8.42707ZM22.1244 11.8443C22.5288 11.7549 22.7842 11.3546 22.6948 10.9501C22.6054 10.5457 22.2051 10.2903 21.8006 10.3797L22.1244 11.8443ZM9.75001 20.727C9.3358 20.727 9.00001 21.0628 9.00001 21.477C9.00001 21.8912 9.3358 22.227 9.75001 22.227V20.727ZM19.0838 22.227C19.498 22.227 19.8338 21.8912 19.8338 21.477C19.8338 21.0628 19.498 20.727 19.0838 20.727V22.227ZM14.4163 7.83575H10.9163V9.33575H14.4163V7.83575ZM10.9145 7.83576C7.9175 7.84296 5.4936 10.2779 5.50001 13.2749L7.00001 13.2716C6.99537 11.103 8.74937 9.34096 10.9181 9.33575L10.9145 7.83576ZM5.50001 13.2733V20.3045H7.00001V13.2733H5.50001ZM5.50001 20.3029C5.4936 23.2999 7.9175 25.7348 10.9145 25.742L10.9181 24.242C8.74937 24.2368 6.99537 22.4748 7.00001 20.3061L5.50001 20.3029ZM10.9163 25.742H17.9163V24.242H10.9163V25.742ZM17.9181 25.742C20.915 25.7348 23.3389 23.2999 23.3325 20.3029L21.8325 20.3061C21.8372 22.4748 20.0831 24.2368 17.9145 24.242L17.9181 25.742ZM23.3325 20.3045V15.617H21.8325V20.3045H23.3325ZM17.673 8.99944C17.9082 9.56908 18.3901 10.3793 19.1063 11.0025C19.8361 11.6375 20.8693 12.1218 22.1244 11.8443L21.8006 10.3797C21.1445 10.5247 20.5808 10.2971 20.0909 9.87089C19.5874 9.43282 19.2269 8.83243 19.0595 8.42707L17.673 8.99944ZM9.75001 22.227H19.0838V20.727H9.75001V22.227Z" fill="#222222"/>
</svg>
