<svg width="32" height="33" viewBox="0 0 32 33" fill="none" xmlns="http://www.w3.org/2000/svg">
<g opacity="0.8">
<rect x="1" y="1.5" width="30" height="30" rx="15" stroke="#222222" stroke-width="2"/>
<path d="M8 12.75C7.58579 12.75 7.25 13.0858 7.25 13.5C7.25 13.9142 7.58579 14.25 8 14.25V12.75ZM11 14.25C11.4142 14.25 11.75 13.9142 11.75 13.5C11.75 13.0858 11.4142 12.75 11 12.75V14.25ZM13 12.75C12.5858 12.75 12.25 13.0858 12.25 13.5C12.25 13.9142 12.5858 14.25 13 14.25V12.75ZM19 14.25C19.4142 14.25 19.75 13.9142 19.75 13.5C19.75 13.0858 19.4142 12.75 19 12.75V14.25ZM15 15.75C14.5858 15.75 14.25 16.0858 14.25 16.5C14.25 16.9142 14.5858 17.25 15 17.25V15.75ZM19 17.25C19.4142 17.25 19.75 16.9142 19.75 16.5C19.75 16.0858 19.4142 15.75 19 15.75V17.25ZM17 18.75C16.5858 18.75 16.25 19.0858 16.25 19.5C16.25 19.9142 16.5858 20.25 17 20.25V18.75ZM19 20.25C19.4142 20.25 19.75 19.9142 19.75 19.5C19.75 19.0858 19.4142 18.75 19 18.75V20.25ZM8 15.75C7.58579 15.75 7.25 16.0858 7.25 16.5C7.25 16.9142 7.58579 17.25 8 17.25V15.75ZM11 17.25C11.4142 17.25 11.75 16.9142 11.75 16.5C11.75 16.0858 11.4142 15.75 11 15.75V17.25ZM8 18.75C7.58579 18.75 7.25 19.0858 7.25 19.5C7.25 19.9142 7.58579 20.25 8 20.25V18.75ZM11 20.25C11.4142 20.25 11.75 19.9142 11.75 19.5C11.75 19.0858 11.4142 18.75 11 18.75V20.25ZM8 14.25H11V12.75H8V14.25ZM13 14.25H19V12.75H13V14.25ZM15 17.25H19V15.75H15V17.25ZM17 20.25H19V18.75H17V20.25ZM8 17.25H11V15.75H8V17.25ZM8 20.25H11V18.75H8V20.25ZM10.75 21.5V11.5H9.25V21.5H10.75ZM10.75 11.5C10.75 10.8096 11.3096 10.25 12 10.25V8.75C10.4812 8.75 9.25 9.98122 9.25 11.5H10.75ZM12 10.25H20V8.75H12V10.25ZM20 10.25C20.6904 10.25 21.25 10.8096 21.25 11.5H22.75C22.75 9.98122 21.5188 8.75 20 8.75V10.25ZM21.25 11.5V21.5H22.75V11.5H21.25ZM21.25 21.5C21.25 22.1904 20.6904 22.75 20 22.75V24.25C21.5188 24.25 22.75 23.0188 22.75 21.5H21.25ZM20 22.75H12V24.25H20V22.75ZM12 22.75C11.3096 22.75 10.75 22.1904 10.75 21.5H9.25C9.25 23.0188 10.4812 24.25 12 24.25V22.75Z" fill="#222222"/>
</g>
</svg>
