<svg width="25" height="18" viewBox="0 0 25 18" fill="none" xmlns="http://www.w3.org/2000/svg">
<path d="M23.9115 2.69027C23.6283 1.62832 22.7965 0.796461 21.7522 0.513275C19.8407 2.53188e-07 12.2124 0 12.2124 0C12.2124 0 4.56637 2.53188e-07 2.67257 0.513275C1.62832 0.796461 0.79646 1.62832 0.513275 2.69027C2.53188e-07 4.60177 0 8.60177 0 8.60177C0 8.60177 2.53188e-07 12.6018 0.513275 14.5133C0.79646 15.5752 1.62832 16.4071 2.67257 16.6903C4.58407 17.2035 12.2124 17.2036 12.2124 17.2036C12.2124 17.2036 19.8584 17.2035 21.7522 16.6903C22.7965 16.4071 23.6283 15.5752 23.9115 14.5133C24.4248 12.6018 24.4248 8.60177 24.4248 8.60177C24.4248 8.60177 24.4248 4.60177 23.9115 2.69027ZM9.71681 12.2301V4.97345L16.1062 8.60177L9.71681 12.2301Z" fill="#AAAAAA"/>
</svg>
