<svg width="80" height="80" viewBox="0 0 80 80" fill="none" xmlns="http://www.w3.org/2000/svg">
<path d="M46.6665 30.0001H33.3332C32.4491 30.0001 31.6013 30.3513 30.9762 30.9764C30.351 31.6015 29.9998 32.4494 29.9998 33.3334V46.6667C29.9998 47.5508 30.351 48.3987 30.9762 49.0238C31.6013 49.6489 32.4491 50.0001 33.3332 50.0001H46.6665C47.5506 50.0001 48.3984 49.6489 49.0235 49.0238C49.6486 48.3987 49.9998 47.5508 49.9998 46.6667V33.3334C49.9998 32.4494 49.6486 31.6015 49.0235 30.9764C48.3984 30.3513 47.5506 30.0001 46.6665 30.0001ZM43.3332 43.3334H36.6665V36.6667H43.3332V43.3334ZM69.9998 43.3334C70.8839 43.3334 71.7317 42.9822 72.3569 42.3571C72.982 41.732 73.3332 40.8841 73.3332 40.0001C73.3332 39.116 72.982 38.2682 72.3569 37.6431C71.7317 37.0179 70.8839 36.6667 69.9998 36.6667H63.3332V30.0001H69.9998C70.8839 30.0001 71.7317 29.6489 72.3569 29.0238C72.982 28.3986 73.3332 27.5508 73.3332 26.6667C73.3332 25.7827 72.982 24.9348 72.3569 24.3097C71.7317 23.6846 70.8839 23.3334 69.9998 23.3334H62.7332C62.2354 21.9354 61.4328 20.6657 60.3835 19.6164C59.3342 18.5671 58.0645 17.7645 56.6665 17.2667V10.0001C56.6665 9.11603 56.3153 8.26818 55.6902 7.64306C55.0651 7.01794 54.2172 6.66675 53.3332 6.66675C52.4491 6.66675 51.6013 7.01794 50.9762 7.64306C50.351 8.26818 49.9998 9.11603 49.9998 10.0001V16.6667H43.3332V10.0001C43.3332 9.11603 42.982 8.26818 42.3569 7.64306C41.7317 7.01794 40.8839 6.66675 39.9998 6.66675C39.1158 6.66675 38.2679 7.01794 37.6428 7.64306C37.0177 8.26818 36.6665 9.11603 36.6665 10.0001V16.6667H29.9998V10.0001C29.9998 9.11603 29.6486 8.26818 29.0235 7.64306C28.3984 7.01794 27.5506 6.66675 26.6665 6.66675C25.7824 6.66675 24.9346 7.01794 24.3095 7.64306C23.6844 8.26818 23.3332 9.11603 23.3332 10.0001V17.2667C21.9352 17.7645 20.6655 18.5671 19.6162 19.6164C18.5669 20.6657 17.7642 21.9354 17.2665 23.3334H9.99984C9.11578 23.3334 8.26794 23.6846 7.64281 24.3097C7.01769 24.9348 6.6665 25.7827 6.6665 26.6667C6.6665 27.5508 7.01769 28.3986 7.64281 29.0238C8.26794 29.6489 9.11578 30.0001 9.99984 30.0001H16.6665V36.6667H9.99984C9.11578 36.6667 8.26794 37.0179 7.64281 37.6431C7.01769 38.2682 6.6665 39.116 6.6665 40.0001C6.6665 40.8841 7.01769 41.732 7.64281 42.3571C8.26794 42.9822 9.11578 43.3334 9.99984 43.3334H16.6665V50.0001H9.99984C9.11578 50.0001 8.26794 50.3513 7.64281 50.9764C7.01769 51.6015 6.6665 52.4494 6.6665 53.3334C6.6665 54.2175 7.01769 55.0653 7.64281 55.6904C8.26794 56.3156 9.11578 56.6668 9.99984 56.6668H17.2665C17.7642 58.0647 18.5669 59.3344 19.6162 60.3838C20.6655 61.4331 21.9352 62.2357 23.3332 62.7334V70.0001C23.3332 70.8841 23.6844 71.732 24.3095 72.3571C24.9346 72.9822 25.7824 73.3334 26.6665 73.3334C27.5506 73.3334 28.3984 72.9822 29.0235 72.3571C29.6486 71.732 29.9998 70.8841 29.9998 70.0001V63.3334H36.6665V70.0001C36.6665 70.8841 37.0177 71.732 37.6428 72.3571C38.2679 72.9822 39.1158 73.3334 39.9998 73.3334C40.8839 73.3334 41.7317 72.9822 42.3569 72.3571C42.982 71.732 43.3332 70.8841 43.3332 70.0001V63.3334H49.9998V70.0001C49.9998 70.8841 50.351 71.732 50.9762 72.3571C51.6013 72.9822 52.4491 73.3334 53.3332 73.3334C54.2172 73.3334 55.0651 72.9822 55.6902 72.3571C56.3153 71.732 56.6665 70.8841 56.6665 70.0001V62.7334C58.0645 62.2357 59.3342 61.4331 60.3835 60.3838C61.4328 59.3344 62.2354 58.0647 62.7332 56.6668H69.9998C70.8839 56.6668 71.7317 56.3156 72.3569 55.6904C72.982 55.0653 73.3332 54.2175 73.3332 53.3334C73.3332 52.4494 72.982 51.6015 72.3569 50.9764C71.7317 50.3513 70.8839 50.0001 69.9998 50.0001H63.3332V43.3334H69.9998ZM56.6665 53.3334C56.6665 54.2175 56.3153 55.0653 55.6902 55.6904C55.0651 56.3156 54.2172 56.6668 53.3332 56.6668H26.6665C25.7824 56.6668 24.9346 56.3156 24.3095 55.6904C23.6844 55.0653 23.3332 54.2175 23.3332 53.3334V26.6667C23.3332 25.7827 23.6844 24.9348 24.3095 24.3097C24.9346 23.6846 25.7824 23.3334 26.6665 23.3334H53.3332C54.2172 23.3334 55.0651 23.6846 55.6902 24.3097C56.3153 24.9348 56.6665 25.7827 56.6665 26.6667V53.3334Z" fill="white"/>
</svg>
