<svg width="80" height="80" viewBox="0 0 80 80" fill="none" xmlns="http://www.w3.org/2000/svg">
<path d="M70.5663 6.86675C68.177 6.45519 65.7575 6.24335 63.333 6.23341C55.0608 6.22663 46.9613 8.59866 39.9996 13.0667C33.0201 8.65732 24.9218 6.34352 16.6663 6.40008C14.2418 6.41001 11.8223 6.62186 9.43296 7.03341C8.65032 7.16834 7.94157 7.57827 7.43434 8.18939C6.92712 8.8005 6.65475 9.57264 6.6663 10.3667V50.3667C6.65916 50.8565 6.76005 51.3419 6.9618 51.7882C7.16354 52.2346 7.46118 52.631 7.83354 52.9492C8.2059 53.2675 8.64382 53.4998 9.11615 53.6295C9.58848 53.7593 10.0836 53.7834 10.5663 53.7001C15.343 52.873 20.237 53.0102 24.9599 54.1037C29.6827 55.1971 34.139 57.2246 38.0663 60.0667L38.4663 60.3001H38.833C39.2026 60.4541 39.5992 60.5334 39.9996 60.5334C40.4001 60.5334 40.7966 60.4541 41.1663 60.3001H41.533L41.933 60.0667C45.8328 57.1611 50.2763 55.0679 55.0001 53.9113C59.7239 52.7546 64.6318 52.5581 69.433 53.3334C69.9157 53.4167 70.4108 53.3926 70.8831 53.2629C71.3554 53.1331 71.7934 52.9008 72.1657 52.5826C72.5381 52.2643 72.8357 51.8679 73.0375 51.4215C73.2392 50.9752 73.3401 50.4899 73.333 50.0001V10.0001C73.2983 9.24059 73.005 8.51578 72.5018 7.94587C71.9986 7.37596 71.3157 6.9952 70.5663 6.86675ZM36.6663 51.1667C30.4992 47.9224 23.6347 46.2291 16.6663 46.2334C15.5663 46.2334 14.4663 46.2334 13.333 46.2334V12.9001C14.4432 12.8361 15.5561 12.8361 16.6663 12.9001C23.7776 12.8922 30.7337 14.979 36.6663 18.9001V51.1667ZM66.6663 46.3667C65.533 46.3667 64.433 46.3667 63.333 46.3667C56.3646 46.3624 49.5 48.0557 43.333 51.3001V18.9001C49.2656 14.979 56.2217 12.8922 63.333 12.9001C64.4432 12.8361 65.5561 12.8361 66.6663 12.9001V46.3667ZM70.5663 60.2001C68.177 59.7885 65.7575 59.5767 63.333 59.5667C55.0608 59.56 46.9613 61.932 39.9996 66.4001C33.038 61.932 24.9384 59.56 16.6663 59.5667C14.2418 59.5767 11.8223 59.7885 9.43296 60.2001C8.99906 60.2689 8.58304 60.4229 8.20884 60.6531C7.83464 60.8833 7.50964 61.1852 7.25252 61.5414C6.9954 61.8977 6.81125 62.3012 6.71064 62.7289C6.61004 63.1566 6.59497 63.5999 6.6663 64.0334C6.83569 64.899 7.34127 65.6622 8.07227 66.1558C8.80327 66.6494 9.7001 66.8331 10.5663 66.6667C15.343 65.8397 20.237 65.9769 24.9599 67.0703C29.6827 68.1638 34.139 70.1913 38.0663 73.0334C38.6308 73.4354 39.3066 73.6514 39.9996 73.6514C40.6926 73.6514 41.3684 73.4354 41.933 73.0334C45.8602 70.1913 50.3165 68.1638 55.0394 67.0703C59.7623 65.9769 64.6562 65.8397 69.433 66.6667C70.2992 66.8331 71.196 66.6494 71.927 66.1558C72.658 65.6622 73.1636 64.899 73.333 64.0334C73.4043 63.5999 73.3892 63.1566 73.2886 62.7289C73.188 62.3012 73.0039 61.8977 72.7467 61.5414C72.4896 61.1852 72.1646 60.8833 71.7904 60.6531C71.4162 60.4229 71.0002 60.2689 70.5663 60.2001Z" fill="white"/>
</svg>
