<svg width="27" height="26" viewBox="0 0 27 26" fill="none" xmlns="http://www.w3.org/2000/svg">
<g clip-path="url(#clip0_134_45)">
<path d="M13.4248 2.34299C16.898 2.34299 17.3057 2.35848 18.6785 2.42041C19.948 2.47717 20.6344 2.68877 21.0937 2.86939C21.7027 3.10679 22.1362 3.38547 22.5904 3.83962C23.0445 4.29377 23.3284 4.72727 23.5606 5.33625C23.7361 5.79555 23.9528 6.48194 24.0096 7.75149C24.0715 9.12426 24.087 9.53196 24.087 13.0052C24.087 16.4784 24.0715 16.8861 24.0096 18.2588C23.9528 19.5284 23.7412 20.2148 23.5606 20.6741C23.3232 21.2831 23.0445 21.7166 22.5904 22.1707C22.1362 22.6249 21.7027 22.9087 21.0937 23.1409C20.6344 23.3164 19.948 23.5331 18.6785 23.5899C17.3057 23.6518 16.898 23.6673 13.4248 23.6673C9.95161 23.6673 9.54391 23.6518 8.17114 23.5899C6.90159 23.5331 6.2152 23.3216 5.75589 23.1409C5.14692 22.9035 4.71342 22.6249 4.25927 22.1707C3.80512 21.7166 3.52127 21.2831 3.28904 20.6741C3.11357 20.2148 2.89682 19.5284 2.84005 18.2588C2.77812 16.8861 2.76264 16.4784 2.76264 13.0052C2.76264 9.53196 2.77812 9.12426 2.84005 7.75149C2.89682 6.48194 3.10841 5.79555 3.28904 5.33625C3.52644 4.72727 3.80512 4.29377 4.25927 3.83962C4.71342 3.38547 5.14692 3.10163 5.75589 2.86939C6.2152 2.69393 6.90159 2.47717 8.17114 2.42041C9.54391 2.35332 9.95677 2.34299 13.4248 2.34299ZM13.4248 0C9.89484 0 9.45101 0.0154823 8.06276 0.0774117C6.67967 0.139341 5.73525 0.361254 4.90953 0.681223C4.05284 1.01151 3.33033 1.4605 2.60782 2.18301C1.88531 2.90552 1.44148 3.63319 1.10603 4.48472C0.786059 5.31044 0.564146 6.25486 0.502216 7.64311C0.440287 9.0262 0.424805 9.47003 0.424805 13C0.424805 16.53 0.440287 16.9738 0.502216 18.362C0.564146 19.7451 0.786059 20.6896 1.10603 21.5204C1.43632 22.3771 1.88531 23.0996 2.60782 23.8222C3.33033 24.5447 4.058 24.9885 4.90953 25.3239C5.73525 25.6439 6.67967 25.8658 8.06792 25.9277C9.45618 25.9897 9.89484 26.0052 13.43 26.0052C16.9651 26.0052 17.4038 25.9897 18.792 25.9277C20.1751 25.8658 21.1195 25.6439 21.9504 25.3239C22.8071 24.9937 23.5296 24.5447 24.2521 23.8222C24.9747 23.0996 25.4185 22.372 25.7539 21.5204C26.0739 20.6947 26.2958 19.7503 26.3577 18.362C26.4197 16.9738 26.4352 16.5351 26.4352 13C26.4352 9.46487 26.4197 9.0262 26.3577 7.63795C26.2958 6.25486 26.0739 5.31044 25.7539 4.47956C25.4236 3.62287 24.9747 2.90036 24.2521 2.17785C23.5296 1.45534 22.802 1.01151 21.9504 0.676062C21.1247 0.356094 20.1803 0.13418 18.792 0.0722509C17.3986 0.0154823 16.9548 0 13.4248 0Z" fill="#AAAAAA"/>
<path d="M13.4251 6.32715C9.74032 6.32715 6.74707 9.31524 6.74707 13.0052C6.74707 16.6952 9.73516 19.6832 13.4251 19.6832C17.1151 19.6832 20.1032 16.6952 20.1032 13.0052C20.1032 9.31524 17.1151 6.32715 13.4251 6.32715ZM13.4251 17.3351C11.0305 17.3351 9.09006 15.3946 9.09006 13C9.09006 10.6054 11.0305 8.66498 13.4251 8.66498C15.8197 8.66498 17.7602 10.6054 17.7602 13C17.7602 15.3946 15.8197 17.3351 13.4251 17.3351Z" fill="#AAAAAA"/>
<path d="M20.3662 7.61711C21.2269 7.61711 21.9247 6.91932 21.9247 6.05856C21.9247 5.19779 21.2269 4.5 20.3662 4.5C19.5054 4.5 18.8076 5.19779 18.8076 6.05856C18.8076 6.91932 19.5054 7.61711 20.3662 7.61711Z" fill="#AAAAAA"/>
</g>
<defs>
<clipPath id="clip0_134_45">
<rect width="26" height="26" fill="white" transform="translate(0.424805)"/>
</clipPath>
</defs>
</svg>
