<svg width="30" height="27" viewBox="0 0 30 27" fill="none" xmlns="http://www.w3.org/2000/svg">
<path fill-rule="evenodd" clip-rule="evenodd" d="M24.4956 0H5.3433C2.63254 0 0.424805 2.21705 0.424805 4.91849V16.8235C0.424805 19.5342 2.64185 21.742 5.3433 21.742H12.1062L13.2706 23.7541L14.4164 25.7382C14.6214 26.1015 15.143 26.1015 15.3573 25.7382L16.5031 23.7541L17.6675 21.742H24.5049C27.2157 21.742 29.4234 19.5249 29.4234 16.8235V4.92781C29.4234 2.21705 27.2064 0 24.4956 0ZM16.2608 8.71914C14.7796 8.71914 13.578 9.90219 13.578 11.3647C13.578 12.8272 14.7796 14.0103 16.2608 14.0103C17.7419 14.0103 18.9436 12.8272 18.9436 11.3647C18.9436 9.90219 17.7512 8.71914 16.2608 8.71914ZM16.2608 12.6316C15.5528 12.6316 14.9753 12.0633 14.9753 11.3647C14.9753 10.666 15.5528 10.0978 16.2608 10.0978C16.9687 10.0978 17.5463 10.666 17.5463 11.3647C17.5463 12.0633 16.978 12.6316 16.2608 12.6316ZM6.23752 9.32465C6.65671 8.94272 7.197 8.71915 7.77455 8.71915C9.11596 8.71915 10.1872 9.91151 10.1872 11.374C10.1872 12.8365 9.10664 14.0196 7.77455 14.0196C7.18769 14.0196 6.65671 13.7867 6.23752 13.4141V13.8892H4.74707V7.13554H6.23752V9.32465ZM6.24684 11.8864C6.45177 12.3614 6.92686 12.6875 7.47646 12.6875C8.22169 12.6875 8.81787 12.1006 8.81787 11.3647C8.81787 10.6288 8.22169 10.0419 7.47646 10.0419C6.92686 10.0419 6.45177 10.368 6.24684 10.843C6.17231 11.0014 6.13505 11.1784 6.13505 11.3647C6.13505 11.551 6.18163 11.728 6.24684 11.8864ZM23.592 8.83096V9.25015C23.1728 8.92411 22.6511 8.72849 22.0922 8.72849C20.7229 8.72849 19.6143 9.87427 19.6143 11.2809C19.6143 12.6875 20.7229 13.8333 22.0922 13.8333C22.6605 13.8333 23.1821 13.6377 23.592 13.3116V14.0196C23.592 14.0196 23.4429 14.7182 22.3996 14.7182V16.0317C22.3996 16.0317 23.5268 16.1621 24.5328 15.1561C24.5328 15.1561 24.9986 14.6623 25.1011 14.0103V8.83096H23.592ZM22.3717 12.5757C21.6171 12.5757 21.0116 11.9889 21.0116 11.2716C21.0116 10.5543 21.6264 9.96743 22.3717 9.96743C22.9026 9.96743 23.3684 10.2655 23.592 10.694C23.6851 10.871 23.7317 11.0666 23.7317 11.2716C23.7317 11.4765 23.6758 11.6814 23.592 11.8491C23.3684 12.2869 22.9026 12.5757 22.3717 12.5757ZM10.3549 8.35586V7.00514C10.3549 7.00514 11.3424 6.87472 12.218 7.90872C12.218 7.90872 12.6186 8.41175 12.7117 9.08245V9.11971V13.8891H11.1747V9.11971C11.0443 8.44901 10.3549 8.35586 10.3549 8.35586Z" fill="#AAAAAA"/>
</svg>
