<svg width="32" height="33" viewBox="0 0 32 33" fill="none" xmlns="http://www.w3.org/2000/svg">
<g opacity="0.8">
<rect x="1" y="1.5" width="30" height="30" rx="15" stroke="#222222" stroke-width="2"/>
<path d="M11.4641 15.9156C11.6353 16.2928 12.0799 16.4598 12.457 16.2885C12.8342 16.1173 13.0011 15.6728 12.8299 15.2956L11.4641 15.9156ZM10.162 14.3356L10.1521 15.0856C10.157 15.0856 10.1618 15.0856 10.1667 15.0856L10.162 14.3356ZM8 16.4406L7.25 16.4305V16.4406H8ZM8 20.6526H7.24991L7.25009 20.6645L8 20.6526ZM10.162 22.7526L10.1679 22.0026C10.1626 22.0026 10.1573 22.0026 10.1521 22.0027L10.162 22.7526ZM12.9293 21.5392C13.0639 21.1475 12.8554 20.7208 12.4636 20.5863C12.0718 20.4517 11.6452 20.6603 11.5107 21.052L12.9293 21.5392ZM12.8322 15.3007C12.6638 14.9223 12.2205 14.752 11.8421 14.9204C11.4636 15.0888 11.2934 15.5321 11.4618 15.9105L12.8322 15.3007ZM12.324 16.4406L11.574 16.4399V16.4406H12.324ZM12.324 20.6526H11.574L11.574 20.6578L12.324 20.6526ZM11.5106 21.0682C11.3828 21.4622 11.5986 21.8852 11.9926 22.013C12.3866 22.1408 12.8096 21.925 12.9374 21.531L11.5106 21.0682ZM11.4756 15.2714C11.291 15.6423 11.442 16.0925 11.8128 16.2771C12.1837 16.4616 12.6339 16.3106 12.8184 15.9398L11.4756 15.2714ZM12.855 14.7366L12.4122 14.1313C12.4054 14.1363 12.3987 14.1414 12.392 14.1466L12.855 14.7366ZM13.233 14.2006L13.9519 14.4145C13.9545 14.4056 13.957 14.3966 13.9593 14.3876L13.233 14.2006ZM14.314 10.0006L13.5939 9.79105C13.5917 9.79856 13.5896 9.8061 13.5877 9.81367L14.314 10.0006ZM16.433 8.81062L16.2371 9.53459C16.2429 9.53614 16.2486 9.53762 16.2544 9.53903L16.433 8.81062ZM17.477 9.58447L16.832 9.96721V9.96721L17.477 9.58447ZM17.656 10.8716L18.3791 11.0708L18.3809 11.0638L17.656 10.8716ZM17.038 13.1146L16.3149 12.9154L16.3119 12.9268L17.038 13.1146ZM17.1929 13.8512L16.6039 14.3156L16.6039 14.3156L17.1929 13.8512ZM17.873 14.1736V13.4235L17.8597 13.4237L17.873 14.1736ZM21.405 14.1736V14.9237L21.4153 14.9235L21.405 14.1736ZM23.2259 14.899L23.749 14.3615V14.3615L23.2259 14.899ZM24 16.6996H24.7501L24.7499 16.6897L24 16.6996ZM24 20.0666L24.75 20.0768V20.0666H24ZM23.2255 21.8666L22.7025 21.3291V21.3291L23.2255 21.8666ZM21.405 22.5916L21.4153 21.8416H21.405V22.5916ZM14.486 22.5916V21.8416L14.4822 21.8416L14.486 22.5916ZM12.8684 20.9186C12.6601 20.5605 12.2011 20.439 11.843 20.6473C11.4849 20.8555 11.3634 21.3145 11.5716 21.6726L12.8684 20.9186ZM12.8299 15.2956C12.3544 14.2482 11.3075 13.5784 10.1573 13.5856L10.1667 15.0856C10.7251 15.0821 11.2333 15.4072 11.4641 15.9156L12.8299 15.2956ZM10.1719 13.5857C8.57959 13.5646 7.27157 14.8382 7.25007 16.4305L8.74993 16.4507C8.76025 15.6866 9.38795 15.0755 10.1521 15.0856L10.1719 13.5857ZM7.25 16.4406V20.6526H8.75V16.4406H7.25ZM7.25009 20.6645C7.27529 22.2542 8.58221 23.5236 10.1719 23.5026L10.1521 22.0027C9.38917 22.0128 8.76199 21.4036 8.74991 20.6407L7.25009 20.6645ZM10.1561 23.5026C11.4065 23.5124 12.5232 22.7219 12.9293 21.5392L11.5107 21.052C11.314 21.6246 10.7733 22.0074 10.1679 22.0026L10.1561 23.5026ZM11.4618 15.9105C11.5359 16.0772 11.5742 16.2575 11.574 16.4399L13.074 16.4413C13.0744 16.0483 12.992 15.6597 12.8322 15.3007L11.4618 15.9105ZM11.574 16.4406V20.6526H13.074V16.4406H11.574ZM11.574 20.6578C11.575 20.7971 11.5536 20.9357 11.5106 21.0682L12.9374 21.531C13.03 21.2457 13.0761 20.9474 13.074 20.6474L11.574 20.6578ZM12.8184 15.9398C12.9374 15.7009 13.108 15.4914 13.318 15.3267L12.392 14.1466C12.0068 14.4488 11.6937 14.8331 11.4756 15.2714L12.8184 15.9398ZM13.2978 15.3419C13.6113 15.1126 13.8411 14.7868 13.9519 14.4145L12.5141 13.9867C12.4969 14.0448 12.4611 14.0955 12.4122 14.1313L13.2978 15.3419ZM13.9593 14.3876L15.0403 10.1876L13.5877 9.81367L12.5067 14.0137L13.9593 14.3876ZM15.0341 10.2102C15.1841 9.69484 15.719 9.39442 16.2371 9.53459L16.6289 8.08664C15.3218 7.73302 13.9722 8.49093 13.5939 9.79105L15.0341 10.2102ZM16.2544 9.53903C16.4966 9.59843 16.7047 9.75273 16.832 9.96721L18.122 9.20173C17.7892 8.64095 17.245 8.23752 16.6116 8.0822L16.2544 9.53903ZM16.832 9.96721C16.9593 10.1817 16.995 10.4383 16.9311 10.6794L18.3809 11.0638C18.5481 10.4335 18.4548 9.76251 18.122 9.20173L16.832 9.96721ZM16.9329 10.6724L16.3149 12.9154L17.7611 13.3138L18.3791 11.0708L16.9329 10.6724ZM16.3119 12.9268C16.1869 13.4099 16.295 13.9237 16.6039 14.3156L17.7818 13.3868C17.7631 13.363 17.7565 13.3318 17.7641 13.3025L16.3119 12.9268ZM16.6039 14.3156C16.9129 14.7074 17.3873 14.9323 17.8863 14.9235L17.8597 13.4237C17.8294 13.4243 17.8006 13.4106 17.7818 13.3868L16.6039 14.3156ZM17.873 14.9236H21.405V13.4236H17.873V14.9236ZM21.4153 14.9235C21.8955 14.9169 22.3586 15.1014 22.7027 15.4364L23.749 14.3615C23.1197 13.749 22.2728 13.4116 21.3947 13.4237L21.4153 14.9235ZM22.7027 15.4364C23.0468 15.7713 23.2437 16.2293 23.2501 16.7095L24.7499 16.6897C24.7384 15.8116 24.3783 14.9741 23.749 14.3615L22.7027 15.4364ZM23.25 16.6996V20.0666H24.75V16.6996H23.25ZM23.2501 20.0564C23.2436 20.5365 23.0466 20.9943 22.7025 21.3291L23.7485 22.4042C24.3778 21.7919 24.738 20.9547 24.7499 20.0768L23.2501 20.0564ZM22.7025 21.3291C22.3584 21.6639 21.8954 21.8483 21.4153 21.8417L21.3947 23.3415C22.2726 23.3536 23.1193 23.0164 23.7485 22.4042L22.7025 21.3291ZM21.405 21.8416H14.486V23.3416H21.405V21.8416ZM14.4822 21.8416C13.8178 21.845 13.2023 21.493 12.8684 20.9186L11.5716 21.6726C12.1755 22.7112 13.2885 23.3477 14.4898 23.3416L14.4822 21.8416Z" fill="#222222"/>
</g>
</svg>
