<svg width="80" height="80" viewBox="0 0 80 80" fill="none" xmlns="http://www.w3.org/2000/svg">
<path d="M30.0002 50.0001C29.3409 50.0001 28.6964 50.1956 28.1483 50.5619C27.6001 50.9281 27.1729 51.4487 26.9206 52.0578C26.6683 52.6669 26.6023 53.3371 26.7309 53.9837C26.8595 54.6303 27.177 55.2243 27.6431 55.6904C28.1093 56.1566 28.7033 56.4741 29.3499 56.6027C29.9965 56.7313 30.6667 56.6653 31.2758 56.413C31.8849 56.1607 32.4055 55.7335 32.7717 55.1853C33.138 54.6372 33.3335 53.9927 33.3335 53.3334C33.3335 52.4494 32.9823 51.6015 32.3572 50.9764C31.7321 50.3513 30.8842 50.0001 30.0002 50.0001ZM6.66683 46.6667C5.78277 46.6667 4.93493 47.0179 4.30981 47.6431C3.68469 48.2682 3.3335 49.116 3.3335 50.0001V56.6668C3.3335 57.5508 3.68469 58.3987 4.30981 59.0238C4.93493 59.6489 5.78277 60.0001 6.66683 60.0001C7.55088 60.0001 8.39873 59.6489 9.02385 59.0238C9.64897 58.3987 10.0002 57.5508 10.0002 56.6668V50.0001C10.0002 49.116 9.64897 48.2682 9.02385 47.6431C8.39873 47.0179 7.55088 46.6667 6.66683 46.6667ZM73.3335 46.6667C72.4494 46.6667 71.6016 47.0179 70.9765 47.6431C70.3513 48.2682 70.0002 49.116 70.0002 50.0001V56.6668C70.0002 57.5508 70.3513 58.3987 70.9765 59.0238C71.6016 59.6489 72.4494 60.0001 73.3335 60.0001C74.2175 60.0001 75.0654 59.6489 75.6905 59.0238C76.3156 58.3987 76.6668 57.5508 76.6668 56.6668V50.0001C76.6668 49.116 76.3156 48.2682 75.6905 47.6431C75.0654 47.0179 74.2175 46.6667 73.3335 46.6667ZM56.6668 23.3334H43.3335V19.0667C44.3411 18.485 45.1789 17.6498 45.7637 16.644C46.3484 15.6382 46.6598 14.4968 46.6668 13.3334C46.6668 11.5653 45.9644 9.86961 44.7142 8.61937C43.464 7.36913 41.7683 6.66675 40.0002 6.66675C38.232 6.66675 36.5364 7.36913 35.2861 8.61937C34.0359 9.86961 33.3335 11.5653 33.3335 13.3334C33.3405 14.4968 33.6519 15.6382 34.2367 16.644C34.8214 17.6498 35.6592 18.485 36.6668 19.0667V23.3334H23.3335C20.6813 23.3334 18.1378 24.387 16.2624 26.2623C14.3871 28.1377 13.3335 30.6813 13.3335 33.3334V63.3334C13.3335 65.9856 14.3871 68.5291 16.2624 70.4045C18.1378 72.2799 20.6813 73.3334 23.3335 73.3334H56.6668C59.319 73.3334 61.8625 72.2799 63.7379 70.4045C65.6133 68.5291 66.6668 65.9856 66.6668 63.3334V33.3334C66.6668 30.6813 65.6133 28.1377 63.7379 26.2623C61.8625 24.387 59.319 23.3334 56.6668 23.3334ZM45.7335 30.0001L44.0668 36.6667H35.9335L34.2668 30.0001H45.7335ZM60.0002 63.3334C60.0002 64.2175 59.649 65.0653 59.0238 65.6904C58.3987 66.3156 57.5509 66.6668 56.6668 66.6668H23.3335C22.4494 66.6668 21.6016 66.3156 20.9765 65.6904C20.3514 65.0653 20.0002 64.2175 20.0002 63.3334V33.3334C20.0002 32.4494 20.3514 31.6015 20.9765 30.9764C21.6016 30.3513 22.4494 30.0001 23.3335 30.0001H27.4002L30.0002 40.8001C30.1827 41.5397 30.613 42.1944 31.2195 42.6554C31.826 43.1163 32.572 43.3556 33.3335 43.3334H46.6668C47.4283 43.3556 48.1744 43.1163 48.7808 42.6554C49.3873 42.1944 49.8177 41.5397 50.0002 40.8001L52.6002 30.0001H56.6668C57.5509 30.0001 58.3987 30.3513 59.0238 30.9764C59.649 31.6015 60.0002 32.4494 60.0002 33.3334V63.3334ZM50.0002 50.0001C49.3409 50.0001 48.6964 50.1956 48.1483 50.5619C47.6001 50.9281 47.1729 51.4487 46.9206 52.0578C46.6683 52.6669 46.6023 53.3371 46.7309 53.9837C46.8595 54.6303 47.177 55.2243 47.6431 55.6904C48.1093 56.1566 48.7033 56.4741 49.3499 56.6027C49.9965 56.7313 50.6667 56.6653 51.2758 56.413C51.8849 56.1607 52.4055 55.7335 52.7717 55.1853C53.138 54.6372 53.3335 53.9927 53.3335 53.3334C53.3335 52.4494 52.9823 51.6015 52.3572 50.9764C51.7321 50.3513 50.8842 50.0001 50.0002 50.0001Z" fill="white"/>
</svg>
