<svg width="34" height="34" viewBox="0 0 34 34" fill="none" xmlns="http://www.w3.org/2000/svg">
<path fill-rule="evenodd" clip-rule="evenodd" d="M23.7506 5.89645L26.506 8.13903C26.772 8.39826 26.9211 8.75458 26.919 9.12603C26.9168 9.49747 26.7636 9.85205 26.4946 10.1082L24.4008 12.6582L17.275 21.3523C17.1516 21.4976 16.9855 21.6002 16.8004 21.6455L13.1057 22.4955C12.6155 22.5158 12.1927 22.1542 12.1367 21.6668L12.3096 18.0217C12.3224 17.8356 12.396 17.6589 12.5192 17.5188L19.3376 9.21003L21.7389 6.28037C22.2054 5.64533 23.0829 5.47786 23.7506 5.89645Z" stroke="white" stroke-width="1.5" stroke-linecap="round" stroke-linejoin="round"/>
<path d="M7.08301 25.2738C6.66879 25.2738 6.33301 25.6095 6.33301 26.0238C6.33301 26.438 6.66879 26.7738 7.08301 26.7738V25.2738ZM26.4913 26.7738C26.9056 26.7738 27.2413 26.438 27.2413 26.0238C27.2413 25.6095 26.9056 25.2738 26.4913 25.2738V26.7738ZM20.0327 8.04887C19.8776 7.66477 19.4406 7.47907 19.0565 7.63411C18.6723 7.78914 18.4867 8.2262 18.6417 8.61031L20.0327 8.04887ZM24.5656 12.5136C24.9696 12.4223 25.2232 12.0208 25.1319 11.6167C25.0406 11.2127 24.6391 10.9592 24.2351 11.0504L24.5656 12.5136ZM7.08301 26.7738H26.4913V25.2738H7.08301V26.7738ZM18.6417 8.61031C18.9577 9.39314 19.61 10.5134 20.574 11.3706C21.5512 12.2396 22.9137 12.8867 24.5656 12.5136L24.2351 11.0504C23.1967 11.285 22.311 10.9079 21.5708 10.2497C20.8175 9.57981 20.2833 8.66996 20.0327 8.04887L18.6417 8.61031Z" fill="white"/>
</svg>
