<svg width="50" height="50" viewBox="0 0 50 50" fill="none" xmlns="http://www.w3.org/2000/svg">
<circle cx="25" cy="25" r="25" fill="#AAAAAA"/>
<path d="M12.5469 21.1953H15.6641V30H16.9082V21.1953H20.0117V20.1016H12.5469V21.1953ZM28.9094 25.0508C28.9162 21.9199 27.0705 19.9648 24.5344 19.9648C21.9914 19.9648 20.1525 21.9199 20.1594 25.0508C20.1525 28.1816 21.9914 30.1367 24.5344 30.1367C27.0705 30.1367 28.9162 28.1816 28.9094 25.0508ZM21.3488 25.0508C21.3557 22.4941 22.7434 21.1133 24.5344 21.1133C26.3254 21.1133 27.7131 22.4941 27.7199 25.0508C27.7131 27.6006 26.3254 28.9814 24.5344 28.9883C22.7434 28.9814 21.3557 27.6006 21.3488 25.0508ZM30.0141 30H31.2445V26.4043H33.391C35.6947 26.4043 36.7543 25.0029 36.7543 23.2461C36.7543 21.4824 35.6947 20.1016 33.3773 20.1016H30.0141V30ZM31.2445 25.3105V21.1953H33.3227C34.9154 21.1953 35.5307 22.0635 35.5375 23.2461C35.5307 24.4219 34.9154 25.3105 33.3363 25.3105H31.2445Z" fill="white"/>
</svg>
